<?xml version="1.0" standalone="no"?>
<!DOCTYPE svg PUBLIC "-//W3C//DTD SVG 20010904//EN"
 "http://www.w3.org/TR/2001/REC-SVG-20010904/DTD/svg10.dtd">
<svg version="1.0" xmlns="http://www.w3.org/2000/svg"
 width="600.000000pt" height="600.000000pt" viewBox="0 0 600.000000 600.000000"
 preserveAspectRatio="xMidYMid meet">
<metadata>
Created by potrace 1.14, written by Peter Selinger 2001-2017
</metadata>
<g transform="translate(0.000000,600.000000) scale(0.100000,-0.100000)"
fill="#000000" stroke="none">
<path d="M2725 5824 c-16 -2 -84 -11 -150 -20 -516 -68 -1032 -300 -1429 -645
-406 -351 -684 -770 -845 -1274 -18 -55 -35 -107 -38 -115 -3 -8 -7 -24 -9
-35 -1 -11 -12 -58 -23 -105 -12 -47 -21 -97 -21 -112 0 -15 -5 -30 -10 -33
-6 -4 -8 -10 -6 -14 3 -4 -1 -61 -9 -127 -19 -160 -19 -524 0 -687 8 -71 13
-133 9 -138 -3 -5 0 -9 5 -9 6 0 11 -12 11 -26 0 -42 49 -241 91 -372 166
-508 439 -920 845 -1271 388 -336 873 -560 1396 -642 101 -16 203 -23 421 -28
158 -3 287 -3 287 2 0 4 17 7 38 7 64 0 299 39 420 69 514 130 967 390 1333
767 114 118 191 210 276 330 254 362 414 756 485 1202 20 120 22 175 22 452 0
277 -2 332 -22 452 -71 446 -231 840 -485 1202 -216 307 -520 588 -849 785
-85 50 -269 144 -335 171 -18 7 -33 17 -33 22 0 5 -4 7 -8 4 -5 -3 -67 15
-138 40 -163 57 -325 98 -496 125 -108 17 -187 22 -418 24 -157 2 -298 1 -315
-1z"/>
</g>
</svg>
